<svg width="30" height="30" viewBox="0 0 30 30" fill="none" xmlns="http://www.w3.org/2000/svg">
<path d="M11.392 3.04999L6.95752 7.49674" stroke="#0071E3" stroke-width="1.8375" stroke-miterlimit="10" stroke-linecap="round" stroke-linejoin="round"/>
<path d="M19.208 3.04999L23.6425 7.49674" stroke="#0071E3" stroke-width="1.8375" stroke-miterlimit="10" stroke-linecap="round" stroke-linejoin="round"/>
<path d="M3.0498 10.2162C3.0498 7.94995 4.26255 7.7662 5.7693 7.7662H24.8303C26.3371 7.7662 27.5498 7.94995 27.5498 10.2162C27.5498 12.85 26.3371 12.6662 24.8303 12.6662H5.7693C4.26255 12.6662 3.0498 12.85 3.0498 10.2162Z" stroke="#0071E3" stroke-width="1.8375"/>
<path d="M12.5552 17.75V22.0987" stroke="#0071E3" stroke-width="1.8375" stroke-linecap="round"/>
<path d="M18.1909 17.75V22.0987" stroke="#0071E3" stroke-width="1.8375" stroke-linecap="round"/>
<path d="M4.8877 12.85L6.61495 23.434C7.00695 25.8105 7.9502 27.55 11.4537 27.55H18.8404C22.6502 27.55 23.2137 25.884 23.6547 23.581L25.7127 12.85" stroke="#0071E3" stroke-width="1.8375" stroke-linecap="round"/>
</svg>
