<svg width="45" height="45" viewBox="0 0 45 45" fill="none" xmlns="http://www.w3.org/2000/svg">
<path d="M3.75 23.6436H35.625" stroke="#0071E3" stroke-width="2.8125" stroke-miterlimit="10" stroke-linecap="round" stroke-linejoin="round"/>
<path d="M35.625 19.2746V32.6809C35.5688 38.0246 34.1062 39.3746 28.5374 39.3746H10.8376C5.17505 39.3746 3.75 37.9684 3.75 32.3809V19.2746C3.75 14.2121 4.93125 12.5809 9.375 12.3184C9.825 12.2996 10.3126 12.2809 10.8376 12.2809H28.5374C34.1999 12.2809 35.625 13.6871 35.625 19.2746Z" stroke="#0071E3" stroke-width="2.8125" stroke-linecap="round" stroke-linejoin="round"/>
<path d="M41.25 12.6187V25.725C41.25 30.7875 40.0687 32.4188 35.625 32.6813V19.275C35.625 13.6875 34.1999 12.2812 28.5374 12.2812H10.8376C10.3126 12.2812 9.825 12.3 9.375 12.3187C9.43125 6.975 10.8938 5.625 16.4626 5.625H34.1624C39.8249 5.625 41.25 7.03125 41.25 12.6187Z" stroke="#0071E3" stroke-width="2.8125" stroke-linecap="round" stroke-linejoin="round"/>
<path d="M9.84375 33.3938H13.0687" stroke="#0071E3" stroke-width="2.8125" stroke-miterlimit="10" stroke-linecap="round" stroke-linejoin="round"/>
<path d="M17.0811 33.3938H23.5311" stroke="#0071E3" stroke-width="2.8125" stroke-miterlimit="10" stroke-linecap="round" stroke-linejoin="round"/>
</svg>
