<svg width="33" height="33" viewBox="0 0 33 33" fill="none" xmlns="http://www.w3.org/2000/svg">
<path d="M25.9865 12.3132C25.9865 14.2964 25.3984 16.1155 24.3863 17.6336C22.9091 19.822 20.5704 21.3675 17.8486 21.7641C17.3836 21.8461 16.9049 21.8872 16.4125 21.8872C15.9201 21.8872 15.4414 21.8461 14.9764 21.7641C12.2547 21.3675 9.91591 19.822 8.43878 17.6336C7.42668 16.1155 6.83856 14.2964 6.83856 12.3132C6.83856 7.02019 11.1195 2.73926 16.4125 2.73926C21.7056 2.73926 25.9865 7.02019 25.9865 12.3132Z" stroke="#1D1D1F" stroke-width="2" stroke-linecap="round" stroke-linejoin="round"/>
<path d="M29.064 25.2654L26.8073 25.7987C26.3012 25.9218 25.9046 26.3048 25.7952 26.8109L25.3165 28.8214C25.0566 29.9156 23.6616 30.2438 22.9367 29.3822L16.4127 21.8871L9.88873 29.3958C9.16384 30.2575 7.76878 29.9292 7.50892 28.8351L7.03022 26.8245C6.90713 26.3185 6.51049 25.9219 6.01811 25.8124L3.7614 25.2791C2.72194 25.0329 2.35266 23.7335 3.1049 22.9813L8.43896 17.6472C9.91608 19.8356 12.2549 21.3811 14.9766 21.7777C15.4416 21.8598 15.9203 21.9008 16.4127 21.9008C16.9051 21.9008 17.3838 21.8598 17.8488 21.7777C20.5705 21.3811 22.9093 19.8356 24.3864 17.6472L29.7205 22.9813C30.4727 23.7198 30.1035 25.0192 29.064 25.2654Z" stroke="#1D1D1F" stroke-width="2" stroke-linecap="round" stroke-linejoin="round"/>
<path d="M17.206 8.18287L18.0129 9.79675C18.1223 10.0156 18.4095 10.2344 18.6694 10.2755L20.1329 10.5216C21.0629 10.6721 21.2817 11.3559 20.6115 12.0261L19.4764 13.1613C19.2849 13.3528 19.1755 13.7221 19.2438 13.9956L19.5721 15.4044C19.832 16.5122 19.2438 16.9499 18.2591 16.3617L16.8914 15.5548C16.6452 15.4043 16.2349 15.4043 15.9887 15.5548L14.621 16.3617C13.6362 16.9362 13.0481 16.5122 13.308 15.4044L13.6362 13.9956C13.6909 13.7358 13.5952 13.3528 13.4037 13.1613L12.2685 12.0261C11.5984 11.3559 11.8172 10.6858 12.7472 10.5216L14.2107 10.2755C14.4569 10.2344 14.7441 10.0156 14.8535 9.79675L15.6604 8.18287C16.0571 7.30753 16.7683 7.30753 17.206 8.18287Z" stroke="#1D1D1F" stroke-width="2" stroke-linecap="round" stroke-linejoin="round"/>
</svg>
