<svg width="33" height="34" viewBox="0 0 33 34" fill="none" xmlns="http://www.w3.org/2000/svg">
<path d="M2.83101 6.48304C3.92518 1.75077 11.0509 1.75077 12.1314 6.48304C12.7743 9.25949 11.0099 11.6119 9.47808 13.0754C8.35656 14.1422 6.59221 14.1285 5.47069 13.0754C3.95254 11.6119 2.18819 9.25949 2.83101 6.48304Z" stroke="#1D1D1F" stroke-width="2"/>
<path d="M20.6111 22.8954C21.7053 18.1631 28.8721 18.1631 29.9663 22.8954C30.6091 25.6718 28.8447 28.0243 27.2992 29.4877C26.1777 30.5546 24.3997 30.5409 23.2782 29.4877C21.7327 28.0243 19.9683 25.6718 20.6111 22.8954Z" stroke="#1D1D1F" stroke-width="2"/>
<path d="M16.4127 7.03027H20.0781C22.6084 7.03027 23.7846 10.1623 21.8835 11.8309L10.9555 21.3912C9.05442 23.0461 10.2306 26.1782 12.7472 26.1782H16.4127" stroke="#1D1D1F" stroke-width="2" stroke-linecap="round" stroke-linejoin="round"/>
<path d="M7.50284 7.71413H7.51864" stroke="#1D1D1F" stroke-width="2.7" stroke-linecap="round" stroke-linejoin="round"/>
<path d="M25.2833 24.1265H25.2991" stroke="#1D1D1F" stroke-width="2.7" stroke-linecap="round" stroke-linejoin="round"/>
</svg>
