<svg width="33" height="33" viewBox="0 0 33 33" fill="none" xmlns="http://www.w3.org/2000/svg">
<path d="M2.70575 17.3501H25.7089" stroke="#1D1D1F" stroke-width="2" stroke-miterlimit="10" stroke-linecap="round" stroke-linejoin="round"/>
<path d="M25.7089 14.1973V23.8722C25.6683 27.7286 24.6128 28.7028 20.594 28.7028H7.82061C3.73416 28.7028 2.70575 27.688 2.70575 23.6557V14.1973C2.70575 10.5439 3.55822 9.36665 6.76513 9.17721C7.08988 9.16368 7.44173 9.15015 7.82061 9.15015H20.594C24.6805 9.15015 25.7089 10.165 25.7089 14.1973Z" stroke="#1D1D1F" stroke-width="2" stroke-linecap="round" stroke-linejoin="round"/>
<path d="M29.7683 9.39384V18.8522C29.7683 22.5056 28.9159 23.6828 25.709 23.8723V14.1974C25.709 10.1651 24.6805 9.15028 20.5941 9.15028H7.82068C7.4418 9.15028 7.08995 9.16381 6.7652 9.17734C6.80579 5.32093 7.86127 4.34668 11.8801 4.34668H24.6535C28.7399 4.34668 29.7683 5.36152 29.7683 9.39384Z" stroke="#1D1D1F" stroke-width="2" stroke-linecap="round" stroke-linejoin="round"/>
<path d="M7.10364 24.3865H9.43097" stroke="#1D1D1F" stroke-width="2" stroke-miterlimit="10" stroke-linecap="round" stroke-linejoin="round"/>
<path d="M12.327 24.3867H16.9817" stroke="#1D1D1F" stroke-width="2" stroke-miterlimit="10" stroke-linecap="round" stroke-linejoin="round"/>
</svg>
