<svg width="45" height="45" viewBox="0 0 45 45" fill="none" xmlns="http://www.w3.org/2000/svg">
<path d="M7.47918 27.4886L4.6292 24.6385C3.4667 23.476 3.4667 21.5635 4.6292 20.401L7.47918 17.551C7.96668 17.0635 8.36043 16.1072 8.36043 15.4322V11.4009C8.36043 9.75091 9.71044 8.40096 11.3604 8.40096H15.3917C16.0667 8.40096 17.0229 8.00726 17.5104 7.51976L20.3604 4.66973C21.5229 3.50723 23.4354 3.50723 24.5979 4.66973L27.448 7.51976C27.9355 8.00726 28.8917 8.40096 29.5667 8.40096H33.598C35.248 8.40096 36.5979 9.75091 36.5979 11.4009V15.4322C36.5979 16.1072 36.9917 17.0635 37.4792 17.551L40.3292 20.401C41.4917 21.5635 41.4917 23.476 40.3292 24.6385L37.4792 27.4886C36.9917 27.9761 36.5979 28.9323 36.5979 29.6073V33.6384C36.5979 35.2884 35.248 36.6386 33.598 36.6386H29.5667C28.8917 36.6386 27.9355 37.0323 27.448 37.5198L24.5979 40.3698C23.4354 41.5323 21.5229 41.5323 20.3604 40.3698L17.5104 37.5198C17.0229 37.0323 16.0667 36.6386 15.3917 36.6386H11.3604C9.71044 36.6386 8.36043 35.2884 8.36043 33.6384V29.6073C8.36043 28.9136 7.96668 27.9573 7.47918 27.4886Z" stroke="#D96437" stroke-width="2.8125" stroke-linecap="round" stroke-linejoin="round"/>
<path d="M16.875 28.125L28.125 16.875" stroke="#D96437" stroke-width="2.8125" stroke-linecap="round" stroke-linejoin="round"/>
<path d="M27.1772 27.1875H27.194" stroke="#D96437" stroke-width="3.75" stroke-linecap="round" stroke-linejoin="round"/>
<path d="M17.8022 17.8125H17.819" stroke="#D96437" stroke-width="3.75" stroke-linecap="round" stroke-linejoin="round"/>
</svg>
