<svg width="30" height="30" viewBox="0 0 30 30" fill="none" xmlns="http://www.w3.org/2000/svg">
<path d="M22.7177 9.96418C20.1534 5.99987 14.9178 4.82129 10.8576 7.28559C6.90417 9.7499 5.62199 15.1071 8.18636 19.0714L8.40005 19.3928L7.54527 22.6071L10.7507 21.75L11.0713 21.9643C12.4603 22.7143 13.9562 23.1429 15.452 23.1429C17.0548 23.1429 18.6575 22.7143 20.0465 21.8571C23.9999 19.2857 25.1753 14.0356 22.7177 9.96418ZM20.4739 18.2142C20.0465 18.8571 19.5123 19.2857 18.7643 19.3928C18.337 19.3928 17.8027 19.6071 15.6657 18.75C13.8493 17.8928 12.3534 16.4999 11.285 14.8928C10.6439 14.1428 10.3233 13.1785 10.2165 12.2142C10.2165 11.3571 10.537 10.607 11.0713 10.0713C11.285 9.85704 11.4987 9.7499 11.7124 9.7499H12.2466C12.4603 9.7499 12.674 9.7499 12.7808 10.1785C12.9945 10.7142 13.5288 11.9999 13.5288 12.1071C13.6356 12.2142 13.6356 12.4285 13.5288 12.5356C13.6356 12.7499 13.5288 12.9642 13.4219 13.0714C13.3151 13.1785 13.2082 13.3928 13.1014 13.4999C12.8877 13.6071 12.7808 13.8214 12.8877 14.0356C13.3151 14.6785 13.8493 15.3214 14.3836 15.8571C15.0247 16.3928 15.6657 16.8214 16.4137 17.1428C16.6274 17.25 16.8411 17.25 16.9479 17.0357C17.0548 16.8214 17.589 16.2857 17.8027 16.0714C18.0164 15.8571 18.1233 15.8571 18.337 15.9642L20.0465 16.8214C20.2602 16.9285 20.4739 17.0357 20.5808 17.1428C20.6876 17.4642 20.6876 17.8928 20.4739 18.2142Z" fill="#989898"/>
</svg>
