<svg width="18" height="19" viewBox="0 0 18 19" fill="none" xmlns="http://www.w3.org/2000/svg">
<path d="M9.61633 0.644043C10.5973 0.646659 11.0951 0.651891 11.525 0.664098L11.6942 0.670202C11.8895 0.677178 12.0822 0.685897 12.315 0.696361C13.2428 0.73996 13.8758 0.886451 14.4312 1.10183C15.0067 1.32331 15.4915 1.62326 15.9763 2.10721C16.4199 2.54296 16.763 3.07027 16.9817 3.65234C17.197 4.20778 17.3435 4.84083 17.3871 5.76948C17.3976 6.00142 17.4063 6.19413 17.4133 6.39032L17.4185 6.55949C17.4316 6.9885 17.4368 7.48639 17.4386 8.46736L17.4394 9.11785V10.2601C17.4416 10.8961 17.4349 11.5322 17.4194 12.168L17.4141 12.3372C17.4072 12.5333 17.3985 12.7261 17.388 12.958C17.3444 13.8866 17.1962 14.5188 16.9817 15.0751C16.763 15.6572 16.4199 16.1845 15.9763 16.6203C15.5406 17.0638 15.0133 17.4069 14.4312 17.6257C13.8758 17.841 13.2428 17.9875 12.315 18.0311L11.6942 18.0573L11.525 18.0625C11.0951 18.0747 10.5973 18.0808 9.61633 18.0826L8.96585 18.0834H7.82448C7.18818 18.0857 6.55189 18.079 5.91578 18.0634L5.74663 18.0582C5.53964 18.0503 5.33269 18.0413 5.1258 18.0311C4.19805 17.9875 3.56501 17.841 3.00871 17.6257C2.42698 17.4068 1.89998 17.0637 1.46449 16.6203C1.02063 16.1846 0.677222 15.6573 0.458268 15.0751C0.242897 14.5197 0.0964101 13.8866 0.0528127 12.958L0.0266543 12.3372L0.0222947 12.168C0.00622128 11.5322 -0.00104572 10.8962 0.000495961 10.2601V8.46736C-0.0019175 7.83134 0.00447746 7.19532 0.0196789 6.55949L0.0257825 6.39032C0.032758 6.19413 0.0414775 6.00142 0.0519408 5.76948C0.0955382 4.84083 0.242025 4.20866 0.457396 3.65234C0.67686 3.07004 1.02087 2.5427 1.46537 2.10721C1.9006 1.66385 2.42729 1.32076 3.00871 1.10183C3.56501 0.886451 4.19718 0.73996 5.1258 0.696361C5.35774 0.685897 5.55131 0.677178 5.74663 0.670202L5.91578 0.66497C6.5516 0.649478 7.1876 0.642792 7.8236 0.644915L9.61633 0.644043ZM8.71996 5.00389C7.56369 5.00389 6.45478 5.46323 5.63717 6.28086C4.81956 7.09849 4.36023 8.20744 4.36023 9.36374C4.36023 10.52 4.81956 11.629 5.63717 12.4466C6.45478 13.2642 7.56369 13.7236 8.71996 13.7236C9.87624 13.7236 10.9852 13.2642 11.8028 12.4466C12.6204 11.629 13.0797 10.52 13.0797 9.36374C13.0797 8.20744 12.6204 7.09849 11.8028 6.28086C10.9852 5.46323 9.87624 5.00389 8.71996 5.00389ZM8.71996 6.74783C9.06348 6.74777 9.40365 6.81538 9.72104 6.94679C10.0384 7.0782 10.3268 7.27084 10.5698 7.51371C10.8127 7.75657 11.0054 8.04492 11.137 8.36227C11.2685 8.67963 11.3362 9.01978 11.3362 9.3633C11.3363 9.70683 11.2687 10.047 11.1373 10.3644C11.0059 10.6818 10.8133 10.9702 10.5704 11.2132C10.3275 11.4561 10.0392 11.6488 9.72184 11.7804C9.4045 11.9119 9.06435 11.9796 8.72084 11.9797C8.02707 11.9797 7.36172 11.704 6.87116 11.2135C6.38059 10.7229 6.105 10.0575 6.105 9.36374C6.105 8.66996 6.38059 8.00459 6.87116 7.51401C7.36172 7.02343 8.02707 6.74783 8.72084 6.74783M13.2986 3.69594C13.0095 3.69594 12.7323 3.81077 12.5279 4.01518C12.3235 4.21959 12.2086 4.49682 12.2086 4.7859C12.2086 5.07498 12.3235 5.35221 12.5279 5.55662C12.7323 5.76103 13.0095 5.87586 13.2986 5.87586C13.5876 5.87586 13.8649 5.76103 14.0693 5.55662C14.2737 5.35221 14.3885 5.07498 14.3885 4.7859C14.3885 4.49682 14.2737 4.21959 14.0693 4.01518C13.8649 3.81077 13.5876 3.69594 13.2986 3.69594Z" fill="white"/>
</svg>
