<svg width="45" height="45" viewBox="0 0 45 45" fill="none" xmlns="http://www.w3.org/2000/svg">
<path d="M35.625 16.875C35.625 19.5938 34.8187 22.0875 33.4312 24.1688C31.4062 27.1688 28.2 29.2875 24.4688 29.8313C23.8313 29.9438 23.175 30 22.5 30C21.825 30 21.1687 29.9438 20.5312 29.8313C16.8 29.2875 13.5938 27.1688 11.5688 24.1688C10.1813 22.0875 9.375 19.5938 9.375 16.875C9.375 9.61875 15.2438 3.75 22.5 3.75C29.7562 3.75 35.625 9.61875 35.625 16.875Z" stroke="#7561E8" stroke-width="2.8125" stroke-linecap="round" stroke-linejoin="round"/>
<path d="M39.8438 34.631L36.75 35.3622C36.0563 35.531 35.5125 36.056 35.3625 36.7498L34.7063 39.506C34.35 41.006 32.4375 41.456 31.4438 40.2748L22.5 29.9998L13.5563 40.2935C12.5625 41.4747 10.65 41.0247 10.2938 39.5247L9.63753 36.7685C9.46878 36.0747 8.92503 35.531 8.25003 35.381L5.15628 34.6498C3.73128 34.3123 3.22503 32.531 4.25628 31.4997L11.5688 24.1873C13.5938 27.1873 16.8 29.306 20.5313 29.8498C21.1688 29.9623 21.825 30.0185 22.5 30.0185C23.175 30.0185 23.8313 29.9623 24.4688 29.8498C28.2 29.306 31.4063 27.1873 33.4313 24.1873L40.7438 31.4997C41.775 32.5122 41.2688 34.2935 39.8438 34.631Z" stroke="#7561E8" stroke-width="2.8125" stroke-linecap="round" stroke-linejoin="round"/>
<path d="M23.5872 11.2125L24.6935 13.425C24.8435 13.725 25.2372 14.025 25.5935 14.0812L27.5997 14.4187C28.8747 14.625 29.1747 15.5625 28.256 16.4812L26.6997 18.0375C26.4372 18.3 26.2872 18.8063 26.381 19.1813L26.831 21.1125C27.1872 22.6312 26.381 23.2312 25.031 22.425L23.156 21.3187C22.8185 21.1125 22.256 21.1125 21.9185 21.3187L20.0435 22.425C18.6935 23.2125 17.8872 22.6312 18.2435 21.1125L18.6935 19.1813C18.7685 18.825 18.6372 18.3 18.3747 18.0375L16.8185 16.4812C15.8997 15.5625 16.1997 14.6437 17.4747 14.4187L19.481 14.0812C19.8185 14.025 20.2122 13.725 20.3622 13.425L21.4685 11.2125C22.0122 10.0125 22.9872 10.0125 23.5872 11.2125Z" stroke="#7561E8" stroke-width="2.8125" stroke-linecap="round" stroke-linejoin="round"/>
</svg>
