<svg width="45" height="45" viewBox="0 0 45 45" fill="none" xmlns="http://www.w3.org/2000/svg">
<path d="M33.7125 20.2313V27.7313C33.7125 28.2188 33.6938 28.6875 33.6375 29.1375C33.2063 34.2 30.225 36.7125 24.7313 36.7125H23.9813C23.5125 36.7125 23.0625 36.9375 22.7812 37.3125L20.5313 40.3125C19.5375 41.6437 17.925 41.6437 16.9312 40.3125L14.6812 37.3125C14.4375 36.9937 13.8938 36.7125 13.4813 36.7125H12.7313C6.75002 36.7125 3.75 35.2313 3.75 27.7313V20.2313C3.75 14.7375 6.28127 11.7563 11.325 11.325C11.775 11.2688 12.2438 11.25 12.7313 11.25H24.7313C30.7125 11.25 33.7125 14.25 33.7125 20.2313Z" stroke="#0071E3" stroke-width="2.8125" stroke-miterlimit="10" stroke-linecap="round" stroke-linejoin="round"/>
<path d="M41.2122 12.7311V20.2311C41.2122 25.7436 38.6809 28.7061 33.6372 29.1374C33.6934 28.6874 33.7122 28.2186 33.7122 27.7311V20.2311C33.7122 14.2499 30.7122 11.2499 24.7309 11.2499H12.731C12.2435 11.2499 11.7747 11.2686 11.3247 11.3249C11.756 6.28114 14.7372 3.74988 20.231 3.74988H32.2309C38.2122 3.74988 41.2122 6.74989 41.2122 12.7311Z" stroke="#0071E3" stroke-width="2.8125" stroke-miterlimit="10" stroke-linecap="round" stroke-linejoin="round"/>
<path d="M25.3041 24.8438H25.3209" stroke="#0071E3" stroke-width="3.75" stroke-linecap="round" stroke-linejoin="round"/>
<path d="M18.7416 24.8438H18.7584" stroke="#0071E3" stroke-width="3.75" stroke-linecap="round" stroke-linejoin="round"/>
<path d="M12.1791 24.8438H12.1959" stroke="#0071E3" stroke-width="3.75" stroke-linecap="round" stroke-linejoin="round"/>
</svg>
