<svg width="45" height="45" viewBox="0 0 45 45" fill="none" xmlns="http://www.w3.org/2000/svg">
<path d="M3.8816 8.6249C5.3816 2.1374 15.1503 2.1374 16.6316 8.6249C17.5128 12.4312 15.0941 15.6562 12.9941 17.6624C11.4566 19.1249 9.03785 19.1062 7.50035 17.6624C5.4191 15.6562 3.00035 12.4312 3.8816 8.6249Z" stroke="#0071E3" stroke-width="2.8125"/>
<path d="M28.2565 31.1249C29.7565 24.6374 39.5815 24.6374 41.0815 31.1249C41.9627 34.9312 39.544 38.1562 37.4252 40.1624C35.8877 41.6249 33.4502 41.6062 31.9127 40.1624C29.794 38.1562 27.3752 34.9312 28.2565 31.1249Z" stroke="#0071E3" stroke-width="2.8125"/>
<path d="M22.5002 9.375H27.5252C30.9939 9.375 32.6064 13.6688 30.0002 15.9563L15.0189 29.0625C12.4127 31.3313 14.0252 35.625 17.4752 35.625H22.5002" stroke="#0071E3" stroke-width="2.8125" stroke-linecap="round" stroke-linejoin="round"/>
<path d="M10.2865 10.3125H10.3081" stroke="#0071E3" stroke-width="3.75" stroke-linecap="round" stroke-linejoin="round"/>
<path d="M34.6615 32.8125H34.6831" stroke="#0071E3" stroke-width="3.75" stroke-linecap="round" stroke-linejoin="round"/>
</svg>
