<svg width="18" height="19" viewBox="0 0 18 19" fill="none" xmlns="http://www.w3.org/2000/svg">
<path d="M16.1356 4.60659C13.5268 0.573597 8.20051 -0.625399 4.06993 1.88159C0.0480594 4.38859 -1.25633 9.83857 1.35245 13.8716L1.56985 14.1986L0.700256 17.4685L3.96124 16.5966L4.28733 16.8146C5.70042 17.5775 7.22222 18.0135 8.74401 18.0135C10.3745 18.0135 12.005 17.5775 13.4181 16.7056C17.44 14.0896 18.6356 8.74857 16.1356 4.60659ZM13.8529 12.9996C13.4181 13.6536 12.8746 14.0896 12.1137 14.1986C11.6789 14.1986 11.1354 14.4166 8.9614 13.5446C7.11352 12.6726 5.59172 11.2556 4.50473 9.62057C3.85254 8.85757 3.52644 7.87658 3.41774 6.89558C3.41774 6.02358 3.74384 5.26058 4.28733 4.71559C4.50473 4.49759 4.72213 4.38859 4.93953 4.38859H5.48303C5.70042 4.38859 5.91782 4.38859 6.02652 4.82459C6.24392 5.36958 6.78742 6.67758 6.78742 6.78658C6.89612 6.89558 6.89612 7.11358 6.78742 7.22258C6.89612 7.44058 6.78742 7.65858 6.67872 7.76758C6.57002 7.87658 6.46132 8.09458 6.35262 8.20358C6.13522 8.31258 6.02652 8.53058 6.13522 8.74857C6.57002 9.40257 7.11352 10.0566 7.65701 10.6016C8.30921 11.1466 8.9614 11.5826 9.7223 11.9096C9.9397 12.0186 10.1571 12.0186 10.2658 11.8006C10.3745 11.5826 10.918 11.0376 11.1354 10.8196C11.3528 10.6016 11.4615 10.6016 11.6789 10.7106L13.4181 11.5826C13.6355 11.6916 13.8529 11.8006 13.9616 11.9096C14.0703 12.2366 14.0703 12.6726 13.8529 12.9996Z" fill="white"/>
</svg>
